<svg xmlns="http://www.w3.org/2000/svg" viewBox="0 0 24 24" fill="#ffffff"><path d="M12 .5C5.37.5 0 5.78 0 12.29c0 5.2 3.44 9.61 8.2 11.17.6.11.82-.26.82-.58v-2.03c-3.34.72-4.04-1.61-4.04-1.61-.55-1.38-1.34-1.75-1.34-1.75-1.09-.74.08-.73.08-.73 1.2.08 1.84 1.22 1.84 1.22 1.07 1.82 2.81 1.3 3.5.99.11-.77.42-1.3.76-1.6-2.67-.3-5.47-1.32-5.47-5.87 0-1.3.47-2.36 1.24-3.19-.12-.3-.54-1.52.12-3.16 0 0 1.01-.32 3.3 1.22.96-.26 1.98-.39 3-.4 1.02 0 2.04.14 3 .4 2.28-1.54 3.29-1.22 3.29-1.22.66 1.64.24 2.86.12 3.16.77.83 1.24 1.89 1.24 3.19 0 4.56-2.81 5.57-5.49 5.86.43.36.81 1.08.81 2.18v3.23c0 .32.22.7.83.58C20.57 21.9 24 17.49 24 12.29 24 5.78 18.63.5 12 .5z"/></svg>
