<?xml version="1.0" encoding="utf-8"?>
<svg width="272" height="53" viewBox="0 0 272 53" fill="none" xmlns="http://www.w3.org/2000/svg">
    <g clip-path="url(#clip0_25_197)">
        <path d="M23.839 11.921c0-4.974 4.039-9.013 9.013-9.013 4.975 0 9.014 4.039 9.014 9.013s-4.04 9.014-9.014 9.014h-3.78v2.907h3.78c6.58 0 11.921-5.34 11.921-11.92C44.773 5.34 39.433 0 32.853 0 26.271 0 20.93 5.34 20.93 11.921v3.78h2.908v-3.78Z" fill="black"/>
        <path d="M20.933 29.076h2.908v3.78c0 6.58-5.341 11.92-11.921 11.92-6.58 0-11.921-5.34-11.921-11.92s5.34-11.922 11.92-11.922h3.779v2.908H11.92c-4.975 0-9.014 4.04-9.014 9.014 0 4.974 4.04 9.013 9.014 9.013 4.974 0 9.013-4.039 9.013-9.014v-3.78Z" fill="black"/>
        <path d="M19.51 22.361c0 1.667 1.237 2.957 2.903 2.957 1.559 0 2.849-1.29 2.849-2.957 0-1.612-1.29-2.902-2.849-2.902-1.666 0-2.902 1.29-2.902 2.902Z" fill="black"/>
        <path d="M204.896 41.073V39.89c2.096-.376 2.365-.86 2.365-4.031V8.122c0-2.687-.699-2.956-2.688-3.117V3.822l6.074-1.182h.269v33.219c0 3.171.269 3.655 2.312 4.031v1.183h-8.332Z" fill="black"/>
        <path fill-rule="evenodd" clip-rule="evenodd" d="M162.355 41.61c-3.011 0-5.483-1.129-7.311-2.902h-.269l-2.042 2.634h-1.237V8.23c0-2.742-.591-3.01-2.687-3.225V3.822l6.074-1.129h.269v17.309h.268c1.989-3.01 4.731-4.892 8.493-4.892 5.644 0 10.428 4.623 10.428 12.578 0 8.493-5.429 13.922-11.986 13.922Zm-.162-2.042c5.268 0 8.386-4.838 8.386-11.18 0-5.806-2.688-10.429-7.741-10.429-3.762 0-6.235 2.688-7.686 5.43v7.47c0 5.591 2.687 8.709 7.041 8.709Z" fill="black"/>
        <path d="M67.304 41.61c-4.139 0-8.063-1.236-11.342-3.601v-7.15h1.236c1.936 5.806 5.483 8.494 10.321 8.494 4.14 0 8.17-2.634 8.17-7.096 0-2.956-1.666-4.837-5.858-6.719l-5.537-2.526c-4.945-2.204-7.31-5.537-7.31-9.676 0-5.59 4.837-10.159 11.986-10.159 3.817 0 7.472 1.129 9.784 2.526v6.88h-1.237c-1.559-5.267-4.73-7.148-8.87-7.148-4.514 0-7.9 2.687-7.9 6.88 0 3.01 1.666 5.107 5.428 6.773l5.644 2.58c5 2.258 7.687 5.053 7.687 9.514 0 6.128-5.322 10.428-12.202 10.428Z" fill="black"/>
        <path d="M98.608 16.83v-1.182h7.364v1.182c-2.365.807-3.117 2.097-4.139 4.73l-9.138 23.33c-2.472 6.18-5.805 7.578-8.923 7.578-1.236 0-2.365-.215-3.279-.699v-3.493a9.035 9.035 0 0 0 3.387.645c2.902 0 5.429-1.13 7.041-5.322l1.022-2.526L83.88 21.56c-1.075-2.634-1.828-4.086-3.978-4.73v-1.183h9.03v1.182c-2.633.699-2.257 1.99-1.182 4.677l5.86 14.567h.268l5.859-14.782c.967-2.473 1.236-3.71-1.129-4.462Z" fill="black"/>
        <path d="M109.572 21.13v14.836c0 2.957-.215 3.548-2.311 3.924v1.183h8.278V39.89c-1.989-.376-2.311-.967-2.311-3.924V23.12c1.397-2.472 3.762-5.16 6.988-5.16 3.278 0 5.106 2.15 5.106 6.29v11.825c0 3.064-.43 3.494-2.365 3.816v1.183h8.332V39.89c-1.935-.322-2.365-.752-2.365-3.816V23.066c1.397-2.58 3.709-5.107 6.934-5.107 3.01 0 5.052 2.043 5.052 6.182v11.718c0 3.117-.322 3.709-2.311 4.031v1.183h8.278V39.89c-2.096-.322-2.311-.86-2.311-4.031V23.926c0-5.913-3.494-8.816-7.579-8.816-3.494 0-6.128 1.989-8.171 5.16h-.322c-.914-3.225-3.494-5.16-6.827-5.16-3.494 0-6.182 1.881-8.171 4.892h-.268v-4.623h-.269l-6.074 1.182v1.183c2.257.161 2.687.753 2.687 3.387Z" fill="black"/>
        <path fill-rule="evenodd" clip-rule="evenodd" d="M177.12 28.333c0 7.794 5.321 13.277 12.524 13.277 7.149 0 12.417-5.483 12.417-13.277s-5.268-13.223-12.417-13.223c-7.203 0-12.524 5.483-12.524 13.223Zm20.856 0c0 6.827-3.44 10.966-8.332 10.966-5.052 0-8.439-4.247-8.439-10.966 0-6.665 3.387-10.965 8.439-10.965 4.892 0 8.332 4.139 8.332 10.965Z" fill="black"/>
        <path d="M217.847 7.531c0 1.666 1.236 2.956 2.902 2.956 1.559 0 2.849-1.29 2.849-2.956 0-1.613-1.29-2.903-2.849-2.903-1.666 0-2.902 1.29-2.902 2.903Z" fill="black"/>
        <path d="M222.684 35.913V15.379h-.268l-6.075 1.129v1.182c2.043.162 2.688.538 2.688 3.172v15.05c0 3.118-.269 3.656-2.311 3.978v1.183h8.278V39.89c-2.043-.322-2.312-.86-2.312-3.977Z" fill="black"/>
        <path d="M240.197 41.61c-7.042 0-12.31-5.429-12.31-12.954 0-7.633 5.268-13.546 12.74-13.546 2.472 0 4.999.538 6.88 1.559v5.268h-1.236c-.753-2.903-2.849-4.623-5.698-4.623-5.376 0-8.869 4.569-8.869 10.536 0 6.611 4.085 10.643 9.514 10.643 3.117 0 5.483-.968 7.794-2.903l1.021.967c-2.849 3.28-5.913 5.053-9.836 5.053Z" fill="black"/>
        <path fill-rule="evenodd" clip-rule="evenodd" d="M269.687 35.859v-11.61c0-6.505-3.816-9.139-8.385-9.139-3.548 0-6.988 1.881-9.73 4.462l.86 1.182c2.527-1.827 5.107-2.849 7.795-2.849 3.655 0 5.805 1.99 5.805 6.343v2.419l-5.913 1.666c-5.106 1.452-8.762 3.226-8.762 7.31 0 3.548 2.957 5.967 6.397 5.967 3.01 0 5.752-1.343 8.009-4.784h.269v4.462h.269l5.698-1.183v-1.182c-2.043-.215-2.312-.484-2.312-3.064Zm-3.655-2.043c-1.29 2.58-3.763 5.053-6.827 5.053-2.365 0-4.031-1.398-4.031-3.763 0-2.793 2.684-3.761 5.96-4.943l.006-.002 4.892-1.666v5.321Z" fill="black"/>
    </g>
    <defs>
        <clipPath id="clip0_25_197">
            <path fill="#fff" transform="translate(-.001)" d="M0 0h272v52.468H0z"/>
        </clipPath>
    </defs>
</svg>
