<svg xmlns="http://www.w3.org/2000/svg" viewBox="0 0 24 24" fill="#ffffff"><path d="M23.44 4.83c-.8.37-1.66.62-2.57.73.92-.55 1.63-1.43 1.96-2.48-.86.51-1.82.89-2.83 1.09-.81-.87-1.97-1.41-3.26-1.41-2.47 0-4.47 2-4.47 4.47 0 .35.04.69.11 1.02-3.72-.19-7.02-1.97-9.22-4.68-.39.66-.61 1.43-.61 2.25 0 1.55.79 2.92 1.99 3.72-.73-.02-1.42-.22-2.02-.56v.06c0 2.17 1.54 3.98 3.58 4.39-.37.1-.77.16-1.18.16-.29 0-.57-.03-.85-.08.57 1.78 2.23 3.07 4.19 3.11-1.54 1.2-3.47 1.92-5.58 1.92-.36 0-.72-.02-1.07-.06 1.99 1.27 4.35 2.02 6.89 2.02 8.26 0 12.78-6.85 12.78-12.78 0-.19 0-.39-.01-.58.88-.63 1.64-1.42 2.24-2.32z"/></svg>
